<?xml version="1.0" encoding="utf-8"?>
<!-- Generator: Adobe Illustrator 13.0.0, SVG Export Plug-In . SVG Version: 6.00 Build 14948)  -->
<!DOCTYPE svg PUBLIC "-//W3C//DTD SVG 1.1//EN" "http://www.w3.org/Graphics/SVG/1.1/DTD/svg11.dtd">
<svg version="1.1" id="Layer_1" xmlns="http://www.w3.org/2000/svg" xmlns:xlink="http://www.w3.org/1999/xlink" x="0px" y="0px"
	 width="253.6px" height="280px" viewBox="0 0 253.6 280" enable-background="new 0 0 253.6 280" xml:space="preserve">
<g>
	<g>
		<path fill="#FCFEFC" d="M0,0h241.348c-0.42,0.436-0.828,0.896-1.36,1.192c-8.68,5.108-17.24,10.424-25.956,15.472
			c-0.008-0.88-0.012-1.76-0.016-2.64c-6.436,3.676-12.804,7.472-19.22,11.18c-1.212,0.664-2.324,1.552-3.648,1.972
			c-1.324-0.256-2.544-0.864-3.812-1.312C168.14,18.792,148.384,13.24,128.304,9.32c-0.98-0.192-1.988-0.148-2.964,0.04
			c-20.984,4.104-41.62,9.996-61.62,17.56c-0.688,0.364-1.432,0.232-2.06-0.188c-7.264-4.228-14.496-8.524-21.8-12.688
			c-0.008,0.896-0.02,1.796-0.028,2.692C30.656,11.272,21.56,5.68,12.34,0.296c3.212,14.976,6.576,29.92,9.768,44.9
			c-7.384,3.808-14.732,7.692-21.912,11.88c0.772,3.492,1.188,7.048,1.86,10.556c6.12,34.416,15.936,68.424,31.832,99.656
			c14,27.768,33.036,53.044,56.252,73.764c11.392,10.24,23.78,19.328,36.748,27.464c23.264-14.344,44.352-32.312,61.804-53.368
			c17.796-21.372,31.728-45.804,42.032-71.592c11.144-27.756,18.216-56.992,22.864-86.492c-7.12-4.224-14.472-8.052-21.824-11.86
			c3.156-15.088,6.676-30.1,9.764-45.204H253.6v280H0V0z"/>
		<g>
			<path fill="#FCFEFC" d="M209.28,25.172c8.388-5.016,16.776-10.032,25.132-15.096c-0.896,5.192-2.224,10.296-3.28,15.456
				c-1.652,7.404-3.188,14.832-4.9,22.22c7.4,3.816,14.792,7.652,22.056,11.728c-2.596,16.772-6.256,33.392-10.9,49.72
				c-8.648,30.312-21.36,59.66-39.328,85.648c-18.612,27.112-42.968,50.152-70.736,67.72c-0.34,0.208-0.672,0.168-0.988-0.112
				c-22.788-14.516-43.352-32.608-60.22-53.744c-12.632-15.756-23.208-33.124-31.784-51.396
				c-14.492-30.892-23.34-64.16-28.788-97.76c7.22-4.12,14.568-8.02,22.028-11.684c-2.616-12.608-5.532-25.148-8.168-37.752
				c8.46,4.94,16.788,10.1,25.228,15.068c0-0.92-0.004-1.844,0.004-2.764c5.972,3.26,11.728,6.896,17.688,10.184
				c20.104-7.856,40.912-13.908,62.072-18.176c1.188-0.264,2.42-0.556,3.636-0.28c21.696,4.248,42.988,10.492,63.604,18.456
				c5.872-3.392,11.692-6.876,17.592-10.22C209.244,23.316,209.26,24.244,209.28,25.172z M27.696,21.64
				c2.004,9.352,4.096,18.684,6.104,28.036c0.124,0.372,0.112,0.964,0.612,1.052c3.016,1.124,6.04,2.22,9.072,3.304
				c0.008-1.152,0.004-2.304,0.008-3.452c9.564,3.776,19.128,7.556,28.7,11.312c0.496,0.224,0.98,0.48,1.456,0.748
				c-7.412-1.484-14.88-2.664-22.308-4.072c0.004,0.812,0.008,1.628,0.012,2.444c-4.928-0.692-9.864-1.3-14.792-1.988
				c2.72,6.484,5.28,13.032,8.068,19.484c2.86-0.448,5.728-0.84,8.6-1.192c-0.328-0.932-0.716-1.84-1.132-2.736
				c8.012-0.416,16.024-1.028,24.044-1.256c-5.644,1.844-11.304,3.636-16.952,5.46c0.344,0.812,0.696,1.616,1.048,2.424
				c-3.812,1.528-7.668,2.956-11.444,4.568c3.5,5.036,6.924,10.128,10.392,15.188c2.404-1.264,4.808-2.532,7.228-3.764
				c-0.492-0.86-1-1.708-1.524-2.548c5.444-2.372,10.852-4.86,16.36-7.084c-3.656,3.132-7.372,6.196-11.052,9.3
				c0.488,0.604,0.976,1.208,1.456,1.82c-2.704,2.156-5.32,4.416-8.008,6.588c3.813,3.232,7.645,6.448,11.476,9.656
				c3-2.196,5.964-4.432,9.024-6.54c-2.088,2.912-4.328,5.724-6.524,8.556c3.848,2.108,7.736,4.152,11.632,6.172
				c3.584-3.44,6.892-7.172,10.372-10.724c3.596,4.956,7.152,9.944,10.78,14.88c-4.632,3.056-9.36,5.96-13.992,9.012
				c4.364,5.528,8.708,11.072,13,16.656c3.672-3.52,6.884-7.508,10.588-10.996c-2.532,4.936-5.204,9.804-7.764,14.728
				c3.456,2.324,6.84,4.76,10.316,7.06c-2.804,4.236-5.672,8.428-8.488,12.66c4.34,10.656,8.476,21.4,12.908,32.016
				c4.276-10.672,8.532-21.356,12.84-32.016c-2.844-4.18-5.608-8.42-8.496-12.572c3.388-2.436,6.852-4.768,10.3-7.128
				c-2.592-5.044-5.288-10.032-7.948-15.036c3.652,3.7,7.136,7.564,10.72,11.332c4.356-5.572,8.68-11.168,13.072-16.712
				c-4.64-3.036-9.36-5.952-13.988-9.008c3.636-4.932,7.156-9.948,10.804-14.868c3.368,3.64,6.876,7.148,10.268,10.768
				c3.912-2.06,7.84-4.092,11.708-6.228c-2.244-2.832-4.44-5.704-6.592-8.604c3.084,2.128,6.068,4.404,9.108,6.592
				c3.816-3.196,7.588-6.44,11.448-9.588c-2.608-2.312-5.38-4.436-8-6.728c0.488-0.584,0.98-1.168,1.472-1.748
				c-3.652-3.096-7.412-6.072-10.952-9.292c5.42,2.268,10.768,4.704,16.176,7.008c-0.448,0.892-0.936,1.764-1.464,2.608
				c2.428,1.232,4.824,2.532,7.256,3.76c3.424-5.108,6.976-10.128,10.356-15.26c-3.824-1.44-7.596-3.008-11.412-4.472
				c0.336-0.816,0.684-1.632,1.024-2.444c-5.62-1.812-11.26-3.572-16.856-5.448c7.992,0.232,15.98,0.848,23.972,1.248
				c-0.412,0.904-0.82,1.812-1.22,2.72c2.908,0.372,5.812,0.78,8.712,1.2c2.708-6.472,5.344-12.972,8.012-19.46
				c-4.92,0.672-9.848,1.276-14.76,1.98c-0.008-0.816-0.012-1.632-0.012-2.448c-7.5,1.388-15.012,2.684-22.516,4.052
				c10.068-4.128,20.252-7.98,30.344-12.044c0.004,1.148,0,2.296,0.008,3.448c3.184-1.088,6.324-2.292,9.492-3.432
				c2.144-9.644,4.2-19.308,6.356-28.948c-7.568,4.476-15.056,9.1-22.652,13.536c-0.008-0.992-0.004-1.984-0.012-2.98
				c-9.008,5.296-18.044,10.54-27.064,15.816c0.024-1.004,0.068-2.004,0.108-3.004c-6.476,3.964-13.064,7.752-19.496,11.788
				c1.456,0.316,2.964,0.46,4.384,0.932c1.52,2.624,2.756,5.412,4.128,8.12c-2.46,3.04-4.804,6.168-7.28,9.192
				c-2.648-0.036-5.3,0.02-7.948-0.016c-0.5,0.044-0.904-0.284-1.308-0.516c-2.66-1.74-5.344-3.444-8.02-5.16
				c-0.624-0.388-1.252-0.912-1.308-1.7c-0.812-4.392-1.608-8.788-2.352-13.192c1.712-0.008,3.42-0.136,5.128-0.204
				c-0.808-0.904-1.628-1.796-2.42-2.712c1.104-0.14,2.204-0.308,3.292-0.56c-2.468-0.732-4.976-1.308-7.46-1.976
				c-3.296-0.644-6.04-2.7-9.04-4.088c-2.164,1.052-4.236,2.328-6.48,3.176c-2.816,0.26-5.636,0.452-8.456,0.616
				c-1.224,2.384-2.384,4.796-3.564,7.2c2.16-0.264,4.324-0.5,6.476-0.824c1.64,1.12,3.24,2.288,4.892,3.392
				c-1.984,3.476-4.032,6.924-6.176,10.296c-3.16,2.156-6.388,4.264-9.676,6.212c-2.8,0.12-5.612,0.012-8.416,0.044
				c-2.392-3.068-4.776-6.136-7.212-9.164c1.312-2.692,2.616-5.388,4.02-8.028c1.376-0.668,3.02-0.6,4.468-1.132
				c-6.5-3.872-12.964-7.804-19.468-11.66c0.032,0.984,0.072,1.972,0.108,2.96c-9.048-5.256-18.084-10.536-27.112-15.824
				c-0.004,1.008,0,2.012-0.004,3.016C42.748,30.692,35.22,26.172,27.696,21.64z M124.428,23.488
				c-16.076,3.852-31.892,8.804-47.272,14.876c1.744,1.032,3.484,2.076,5.216,3.124c14.244-6.4,28.939-11.756,43.84-16.412
				c0.476-0.184,0.996-0.18,1.472,0.008c14.904,4.648,29.588,10.04,43.844,16.404c1.684-1.096,3.468-2.028,5.132-3.152
				c-15.832-6.232-32.124-11.308-48.688-15.196C126.784,22.732,125.588,23.236,124.428,23.488z M126.908,31.256
				c-0.6,1.08-1.2,2.156-1.824,3.22c0.38,0.808,0.76,1.616,1.144,2.424c-0.644,0.004-1.284,0.012-1.924,0.02
				c-0.024,0.596-0.036,1.196-0.064,1.796c-0.996,0.388-1.98,0.808-2.956,1.236c-0.836-0.912-1.492-2.044-2.512-2.76
				c-1.4-0.28-2.828-0.436-4.24-0.636c1.632,2.26,3.284,4.512,4.904,6.78c-0.012,0.712-0.016,1.42-0.02,2.132
				c2.472-0.96,4.916-1.996,7.412-2.892c2.6,0.74,5.064,1.956,7.616,2.868c0.104-0.868-0.22-1.896,0.376-2.64
				c1.492-2.084,3.048-4.128,4.496-6.248c-1.464,0.224-2.956,0.344-4.388,0.716c-0.86,0.808-1.548,1.78-2.316,2.672
				c-0.976-0.408-1.98-0.768-2.904-1.284c-0.188-0.564-0.124-1.176-0.18-1.76c-0.616,0-1.228,0-1.844-0.004
				c0.364-0.812,0.736-1.62,1.1-2.432C128.184,33.38,127.564,32.308,126.908,31.256z M19.024,66.748
				c1.348,7.58,2.852,15.136,4.708,22.612c7.008,28.68,18.284,56.46,34.508,81.192c9.512,14.528,20.696,27.972,33.352,39.868
				c10.78,10.216,22.688,19.204,35.268,27.088c30.22-18.44,55.64-44.504,73.744-74.896c17.564-29.312,28.521-62.264,34.208-95.868
				c-3.884-2.316-7.844-4.512-11.792-6.712c-1.192,2.784-2.3,5.604-3.484,8.392c1.344,0.972,2.692,1.932,4.044,2.892
				c-5.532,31.68-16.632,62.632-34.256,89.636c-15.956,24.568-37.416,45.54-62.416,60.82c-18.32-11.292-34.832-25.528-48.568-42.104
				c-16.54-19.872-29.016-42.972-37.476-67.364C36.192,99,32.812,85.276,30.208,71.424c1.34-1.04,2.736-2.012,4.124-2.988
				c-1.188-2.792-2.292-5.616-3.476-8.408C26.888,62.224,22.932,64.448,19.024,66.748z M67.708,129.72
				c6.448,9.272,12.936,18.516,19.428,27.752c-2.724,0.064-5.448,0.012-8.168,0.032c7.008,7.924,14.06,15.812,21.084,23.72
				c3.596,3.964,7.04,8.072,10.728,11.948c-6.348-9.688-12.624-19.424-18.968-29.116c2.988-0.02,5.972,0,8.96-0.012
				c-5.524-8.692-11.316-17.216-16.912-25.86c-0.44-0.62-0.784-1.396-1.532-1.696C77.456,134.228,72.588,131.968,67.708,129.72z
				 M171.264,136.756c-5.964,9.104-11.976,18.176-17.924,27.288c3.004,0.008,6.012-0.012,9.016,0.016
				c-6.348,9.696-12.616,19.448-18.988,29.128c0.42-0.408,0.832-0.828,1.232-1.252c10.192-11.484,20.416-22.94,30.608-34.424
				c-2.728-0.028-5.456,0.004-8.18-0.023c6.476-9.24,13-18.456,19.4-27.752C181.368,132.064,176.32,134.42,171.264,136.756z
				 M179.976,206.956c-6.268,5.56-12.596,11.052-19.144,16.28c-10.544,8.388-21.624,16.336-33.972,21.856
				c-19.808-9.2-36.452-23.68-52.772-37.92c6.3,7.244,12.964,14.176,19.912,20.8c9.928,9.28,20.796,17.704,32.876,24
				c1.728-0.656,3.26-1.748,4.884-2.62C150.384,238.464,165.824,223.048,179.976,206.956z"/>
		</g>
		<path fill="#FCFEFC" d="M124.156,48.78c0.952-0.448,1.824-1.236,2.864-1.416c1.348,0.572,2.54,1.616,4.092,1.58
			c-0.488,0.372-0.976,0.748-1.452,1.132C127.7,50.32,125.848,49.716,124.156,48.78z"/>
	</g>
	<g>
		<g>
			<path fill="#999999" d="M241.348,0h0.18c-3.088,15.104-6.608,30.116-9.764,45.204c7.352,3.808,14.704,7.636,21.824,11.86
				c-4.648,29.5-11.72,58.736-22.864,86.492c-10.304,25.788-24.236,50.22-42.032,71.592c-17.452,21.056-38.54,39.024-61.804,53.368
				c-12.968-8.136-25.356-17.224-36.748-27.464c-23.216-20.72-42.252-45.996-56.252-73.764
				c-15.896-31.232-25.712-65.24-31.832-99.656c-0.672-3.508-1.088-7.064-1.86-10.556c7.18-4.188,14.528-8.072,21.912-11.88
				c-3.192-14.98-6.556-29.924-9.768-44.9c9.22,5.384,18.316,10.976,27.492,16.44c0.008-0.896,0.02-1.796,0.028-2.692
				c7.304,4.164,14.536,8.46,21.8,12.688c0.628,0.42,1.372,0.552,2.06,0.188c20-7.564,40.636-13.456,61.62-17.56
				c0.976-0.188,1.984-0.232,2.964-0.04c20.08,3.92,39.836,9.472,59.032,16.544c1.268,0.448,2.488,1.056,3.812,1.312
				c1.324-0.42,2.436-1.308,3.648-1.972c6.416-3.708,12.784-7.504,19.22-11.18c0.004,0.88,0.008,1.76,0.016,2.64
				c8.716-5.048,17.276-10.364,25.956-15.472C240.52,0.896,240.928,0.436,241.348,0z M209.28,25.172
				c-0.02-0.928-0.036-1.856-0.052-2.784c-5.9,3.344-11.72,6.828-17.592,10.22c-20.616-7.964-41.908-14.208-63.604-18.456
				c-1.216-0.276-2.448,0.016-3.636,0.28c-21.16,4.268-41.968,10.32-62.072,18.176c-5.96-3.288-11.716-6.924-17.688-10.184
				c-0.008,0.92-0.004,1.844-0.004,2.764C36.192,20.22,27.864,15.06,19.404,10.12c2.636,12.604,5.552,25.144,8.168,37.752
				c-7.46,3.664-14.808,7.564-22.028,11.684c5.448,33.6,14.296,66.868,28.788,97.76c8.576,18.272,19.152,35.64,31.784,51.396
				c16.868,21.136,37.432,39.228,60.22,53.744c0.316,0.28,0.648,0.32,0.988,0.112c27.768-17.568,52.124-40.608,70.736-67.72
				c17.968-25.988,30.68-55.336,39.328-85.648c4.644-16.328,8.304-32.948,10.9-49.72c-7.264-4.076-14.656-7.912-22.056-11.728
				c1.712-7.388,3.248-14.816,4.9-22.22c1.056-5.16,2.384-10.264,3.28-15.456C226.056,15.14,217.668,20.156,209.28,25.172z"/>
		</g>
	</g>
	<g>
		<g>
			<path fill="#04205B" d="M27.696,21.64c7.524,4.532,15.052,9.052,22.588,13.56c0.004-1.004,0-2.008,0.004-3.016
				c9.028,5.288,18.063,10.568,27.112,15.824c-0.036-0.988-0.076-1.976-0.108-2.96c6.504,3.856,12.968,7.788,19.468,11.66
				c-1.448,0.532-3.092,0.464-4.468,1.132c-1.404,2.64-2.708,5.336-4.02,8.028c2.436,3.028,4.82,6.096,7.212,9.164
				c2.804-0.032,5.616,0.076,8.416-0.044c3.288-1.948,6.516-4.056,9.676-6.212c2.144-3.372,4.192-6.82,6.176-10.296
				c-1.652-1.104-3.252-2.272-4.892-3.392c-2.152,0.324-4.316,0.56-6.476,0.824c1.18-2.404,2.34-4.816,3.564-7.2
				c2.82-0.164,5.64-0.356,8.456-0.616c2.244-0.848,4.316-2.124,6.48-3.176c3,1.388,5.744,3.444,9.04,4.088
				c2.484,0.668,4.992,1.244,7.46,1.976c-1.088,0.252-2.188,0.42-3.292,0.56c0.792,0.916,1.612,1.808,2.42,2.712
				c-1.708,0.068-3.416,0.196-5.128,0.204c0.744,4.404,1.54,8.8,2.352,13.192c0.056,0.788,0.684,1.312,1.308,1.7
				c2.676,1.716,5.36,3.42,8.02,5.16c0.404,0.232,0.808,0.56,1.308,0.516c2.647,0.036,5.3-0.02,7.948,0.016
				c2.476-3.024,4.82-6.152,7.28-9.192c-1.372-2.708-2.608-5.496-4.128-8.12c-1.42-0.472-2.928-0.616-4.384-0.932
				c6.432-4.036,13.02-7.824,19.496-11.788c-0.04,1-0.084,2-0.108,3.004c9.021-5.276,18.056-10.52,27.064-15.816
				c0.008,0.996,0.004,1.988,0.012,2.98c7.596-4.436,15.084-9.06,22.652-13.536c-2.156,9.64-4.212,19.304-6.356,28.948
				c-3.168,1.14-6.308,2.344-9.492,3.432c-0.008-1.152-0.004-2.3-0.008-3.448c-10.092,4.064-20.276,7.916-30.344,12.044
				c7.504-1.368,15.016-2.664,22.516-4.052c0,0.816,0.004,1.632,0.012,2.448c4.912-0.704,9.84-1.308,14.76-1.98
				c-2.668,6.488-5.304,12.988-8.012,19.46c-2.9-0.42-5.804-0.828-8.712-1.2c0.4-0.908,0.808-1.816,1.22-2.72
				c-7.992-0.4-15.98-1.016-23.972-1.248c5.596,1.876,11.236,3.636,16.856,5.448c-0.34,0.812-0.688,1.628-1.024,2.444
				c3.816,1.464,7.588,3.032,11.412,4.472c-3.38,5.132-6.932,10.152-10.356,15.26c-2.432-1.228-4.828-2.528-7.256-3.76
				c0.528-0.844,1.016-1.716,1.464-2.608c-5.408-2.304-10.756-4.74-16.176-7.008c3.54,3.22,7.3,6.196,10.952,9.292
				c-0.492,0.58-0.984,1.164-1.472,1.748c2.62,2.292,5.392,4.416,8,6.728c-3.86,3.148-7.632,6.392-11.448,9.588
				c-3.04-2.188-6.024-4.464-9.108-6.592c2.152,2.9,4.348,5.772,6.592,8.604c-3.868,2.136-7.796,4.168-11.708,6.228
				c-3.392-3.62-6.9-7.128-10.268-10.768c-3.648,4.92-7.168,9.936-10.804,14.868c4.628,3.056,9.348,5.972,13.988,9.008
				c-4.392,5.544-8.716,11.14-13.072,16.712c-3.584-3.768-7.068-7.632-10.72-11.332c2.66,5.004,5.356,9.992,7.948,15.036
				c-3.448,2.36-6.912,4.692-10.3,7.128c2.888,4.152,5.652,8.392,8.496,12.572c-4.308,10.66-8.563,21.344-12.84,32.016
				c-4.432-10.616-8.568-21.36-12.908-32.016c2.816-4.232,5.684-8.424,8.488-12.66c-3.476-2.3-6.86-4.736-10.316-7.06
				c2.56-4.924,5.232-9.792,7.764-14.728c-3.704,3.488-6.916,7.476-10.588,10.996c-4.292-5.584-8.636-11.128-13-16.656
				c4.632-3.052,9.36-5.956,13.992-9.012c-3.628-4.936-7.184-9.924-10.78-14.88c-3.48,3.552-6.788,7.284-10.372,10.724
				c-3.896-2.02-7.784-4.064-11.632-6.172c2.196-2.832,4.436-5.645,6.524-8.556c-3.06,2.108-6.024,4.344-9.024,6.54
				c-3.832-3.208-7.664-6.424-11.476-9.656c2.688-2.172,5.304-4.432,8.008-6.588c-0.48-0.612-0.968-1.216-1.456-1.82
				c3.68-3.104,7.396-6.168,11.052-9.3c-5.508,2.224-10.916,4.712-16.36,7.084c0.524,0.84,1.032,1.688,1.524,2.548
				c-2.42,1.232-4.824,2.5-7.228,3.764c-3.468-5.06-6.892-10.152-10.392-15.188c3.776-1.612,7.632-3.04,11.444-4.568
				c-0.352-0.808-0.704-1.612-1.048-2.424c5.648-1.824,11.308-3.616,16.952-5.46c-8.02,0.228-16.032,0.84-24.044,1.256
				c0.416,0.896,0.804,1.804,1.132,2.736c-2.872,0.352-5.74,0.744-8.6,1.192c-2.788-6.452-5.348-13-8.068-19.484
				c4.928,0.688,9.864,1.296,14.792,1.988c-0.004-0.816-0.008-1.632-0.012-2.444c7.428,1.408,14.896,2.588,22.308,4.072
				c-0.476-0.268-0.96-0.524-1.456-0.748c-9.572-3.756-19.136-7.536-28.7-11.312c-0.004,1.148,0,2.3-0.008,3.452
				c-3.032-1.084-6.056-2.18-9.072-3.304c-0.5-0.088-0.488-0.68-0.612-1.052C31.792,40.324,29.7,30.992,27.696,21.64z
				 M124.156,48.78c1.692,0.936,3.544,1.54,5.504,1.296c0.476-0.384,0.964-0.76,1.452-1.132c-1.552,0.036-2.744-1.008-4.092-1.58
				C125.98,47.544,125.108,48.332,124.156,48.78z"/>
		</g>
		<path fill="#04205B" d="M124.428,23.488c1.16-0.252,2.356-0.756,3.544-0.348c16.564,3.888,32.856,8.964,48.688,15.196
			c-1.664,1.124-3.448,2.056-5.132,3.152c-14.256-6.364-28.94-11.756-43.844-16.404c-0.476-0.188-0.996-0.192-1.472-0.008
			c-14.9,4.656-29.596,10.012-43.84,16.412c-1.732-1.048-3.472-2.092-5.216-3.124C92.536,32.292,108.352,27.34,124.428,23.488z"/>
		<path fill="#04205B" d="M126.908,31.256c0.656,1.052,1.276,2.124,1.876,3.208c-0.364,0.812-0.736,1.62-1.1,2.432
			c0.616,0.004,1.228,0.004,1.844,0.004c0.056,0.584-0.008,1.196,0.18,1.76c0.924,0.516,1.928,0.876,2.904,1.284
			c0.768-0.892,1.456-1.864,2.316-2.672c1.432-0.372,2.924-0.492,4.388-0.716c-1.448,2.12-3.004,4.164-4.496,6.248
			c-0.596,0.744-0.272,1.772-0.376,2.64c-2.552-0.912-5.016-2.128-7.616-2.868c-2.496,0.896-4.94,1.932-7.412,2.892
			c0.004-0.712,0.008-1.42,0.02-2.132c-1.62-2.268-3.271-4.52-4.904-6.78c1.412,0.2,2.84,0.356,4.24,0.636
			c1.02,0.716,1.676,1.848,2.512,2.76c0.976-0.428,1.96-0.848,2.956-1.236c0.028-0.6,0.04-1.2,0.064-1.796
			c0.64-0.008,1.28-0.016,1.924-0.02c-0.384-0.808-0.764-1.616-1.144-2.424C125.708,33.412,126.308,32.336,126.908,31.256z"/>
		<path fill="#04205B" d="M19.024,66.748c3.908-2.3,7.864-4.524,11.832-6.72c1.184,2.792,2.288,5.616,3.476,8.408
			c-1.388,0.976-2.784,1.948-4.124,2.988c2.604,13.852,5.984,27.576,10.656,40.88c8.46,24.393,20.936,47.492,37.476,67.364
			c13.736,16.576,30.248,30.812,48.568,42.104c25-15.28,46.46-36.252,62.416-60.82c17.624-27.004,28.724-57.956,34.256-89.636
			c-1.353-0.96-2.7-1.92-4.044-2.892c1.184-2.788,2.292-5.608,3.484-8.392c3.948,2.2,7.908,4.396,11.792,6.712
			c-5.688,33.604-16.644,66.556-34.208,95.868c-18.104,30.392-43.523,56.456-73.744,74.896
			c-12.58-7.884-24.488-16.872-35.268-27.088c-12.656-11.896-23.84-25.34-33.352-39.868C42.016,145.82,30.74,118.04,23.732,89.36
			C21.876,81.884,20.372,74.328,19.024,66.748z"/>
		<path fill="#04205B" d="M67.708,129.72c4.88,2.248,9.748,4.508,14.62,6.769c0.748,0.3,1.092,1.076,1.532,1.696
			c5.596,8.644,11.388,17.168,16.912,25.86c-2.988,0.012-5.972-0.008-8.96,0.012c6.344,9.692,12.62,19.428,18.968,29.116
			c-3.688-3.876-7.132-7.984-10.728-11.948c-7.024-7.908-14.076-15.796-21.084-23.72c2.72-0.02,5.444,0.032,8.168-0.032
			C80.644,148.236,74.156,138.992,67.708,129.72z"/>
		<path fill="#04205B" d="M171.264,136.756c5.056-2.336,10.104-4.692,15.164-7.02c-6.4,9.296-12.924,18.512-19.4,27.752
			c2.724,0.028,5.452-0.004,8.18,0.023c-10.192,11.484-20.416,22.94-30.608,34.424c-0.4,0.424-0.812,0.844-1.232,1.252
			c6.372-9.68,12.64-19.432,18.988-29.128c-3.004-0.028-6.012-0.008-9.016-0.016C159.288,154.932,165.3,145.86,171.264,136.756z"/>
		<path fill="#04205B" d="M179.976,206.956c-14.152,16.092-29.592,31.508-48.216,42.396c-1.624,0.872-3.156,1.964-4.884,2.62
			c-12.08-6.296-22.948-14.72-32.876-24c-6.948-6.624-13.612-13.556-19.912-20.8c16.32,14.24,32.964,28.72,52.772,37.92
			c12.348-5.52,23.428-13.468,33.972-21.856C167.38,218.008,173.708,212.516,179.976,206.956z"/>
	</g>
</g>
</svg>
